<svg width="20" height="20" viewBox="0 0 20 20" fill="none" xmlns="http://www.w3.org/2000/svg">
<g id="app-management" clip-path="url(#clip0_1518_32031)">
<g id="Vector">
<path d="M11.7424 17.0801H3.29049C2.9534 17.0797 2.63022 16.939 2.39186 16.6887C2.1535 16.4385 2.01943 16.0992 2.01908 15.7453V7.28683H17.9809V12.087C17.9809 12.252 18.0433 12.4104 18.1545 12.5271C18.2657 12.6438 18.4165 12.7094 18.5738 12.7094C18.731 12.7094 18.8818 12.6438 18.993 12.5271C19.1042 12.4104 19.1666 12.252 19.1666 12.087V4.23082C19.1659 3.54874 18.9075 2.89481 18.4481 2.41251C17.9887 1.93021 17.3658 1.65894 16.7161 1.6582H3.28391C2.63418 1.65894 2.01127 1.93021 1.55185 2.41251C1.09242 2.89481 0.83401 3.54874 0.833313 4.23082V15.7453C0.83401 16.4293 1.09312 17.0849 1.55377 17.5685C2.01443 18.0521 2.63902 18.3241 3.29049 18.3249H11.7424C11.8996 18.3249 12.0504 18.2593 12.1616 18.1426C12.2728 18.0258 12.3353 17.8675 12.3353 17.7025C12.3353 17.5374 12.2728 17.3791 12.1616 17.2624C12.0504 17.1456 11.8996 17.0801 11.7424 17.0801ZM3.28391 2.90302H16.7161C17.4137 2.90302 17.9809 3.49845 17.9809 4.23082V6.04202H2.01908V4.23082C2.01908 3.49914 2.58628 2.90302 3.28391 2.90302Z" fill="#B5C9DE"/>
<path d="M3.74998 5.4082C4.21022 5.4082 4.58331 5.03511 4.58331 4.57487C4.58331 4.11463 4.21022 3.74154 3.74998 3.74154C3.28974 3.74154 2.91665 4.11463 2.91665 4.57487C2.91665 5.03511 3.28974 5.4082 3.74998 5.4082Z" fill="#B5C9DE"/>
<path d="M5.58531 5.4082C6.04554 5.4082 6.41864 5.03511 6.41864 4.57487C6.41864 4.11463 6.04554 3.74154 5.58531 3.74154C5.12507 3.74154 4.75197 4.11463 4.75197 4.57487C4.75197 5.03511 5.12507 5.4082 5.58531 5.4082Z" fill="#B5C9DE"/>
<path d="M7.42063 5.4082C7.88087 5.4082 8.25397 5.03511 8.25397 4.57487C8.25397 4.11463 7.88087 3.74154 7.42063 3.74154C6.9604 3.74154 6.5873 4.11463 6.5873 4.57487C6.5873 5.03511 6.9604 5.4082 7.42063 5.4082Z" fill="#B5C9DE"/>
<path d="M19.217 14.1491L13.9248 12.5391C13.7336 12.4811 13.5302 12.4761 13.3363 12.5245C13.1424 12.5729 12.9652 12.673 12.8237 12.8141C12.682 12.9553 12.5814 13.1326 12.5329 13.3267C12.4843 13.5208 12.4896 13.7245 12.5481 13.9158L14.1581 19.2086C14.2238 19.4336 14.3605 19.6312 14.5478 19.772C14.7351 19.9129 14.9629 19.9893 15.1972 19.99H15.2144C15.4459 19.9924 15.6721 19.9208 15.86 19.7856C16.0479 19.6505 16.1877 19.4589 16.2591 19.2387L17.0116 17.0026L19.2489 16.2489C19.4719 16.1765 19.6654 16.034 19.8007 15.8427C19.936 15.6513 20.0058 15.4213 19.9996 15.187C19.9987 14.9527 19.922 14.725 19.7809 14.5379C19.6398 14.3508 19.442 14.2144 19.217 14.1491ZM16.6587 15.9567C16.4979 16.0115 16.3518 16.1025 16.2317 16.2227C16.1115 16.3428 16.0206 16.4889 15.9657 16.6497L15.215 18.887L13.6063 13.5973L18.896 15.2036L16.6587 15.9567Z" fill="#B5C9DE"/>
</g>
</g>
<defs>
<clipPath id="clip0_1518_32031">
<rect width="20" height="20" fill="white" transform="translate(0 -0.00878906)"/>
</clipPath>
</defs>
</svg>
