<svg width="20" height="20" viewBox="0 0 20 20" fill="none" xmlns="http://www.w3.org/2000/svg">
<g id="blog" clip-path="url(#clip0_1518_31932)">
<g id="Vector">
<path d="M15.5369 0.824219H4.46307C3.50075 0.825358 2.57817 1.20814 1.8977 1.88861C1.21724 2.56907 0.834453 3.49165 0.833313 4.45397V15.5278C0.833313 17.5291 2.46117 19.1576 4.46307 19.1576H15.5369C17.5382 19.1576 19.1666 17.5291 19.1666 15.5278V4.45397C19.1666 2.45269 17.5382 0.824219 15.5369 0.824219ZM18.0593 15.5278C18.0593 16.9188 16.9279 18.0502 15.5369 18.0502H4.46307C3.79429 18.0495 3.1531 17.7836 2.6802 17.3107C2.20731 16.8378 1.94135 16.1966 1.9407 15.5278V4.45397C1.9407 3.06298 3.07207 1.9316 4.46307 1.9316H15.5369C16.9279 1.9316 18.0593 3.06298 18.0593 4.45397V15.5278Z" fill="#B5C9DE"/>
<path d="M6.31855 13.2964C6.37822 13.2964 6.4379 13.2915 6.49758 13.2817L8.10451 13.011C8.32722 12.9734 8.52901 12.8695 8.68712 12.7107L13.2784 8.11879C13.6605 7.73736 13.8715 7.2292 13.8715 6.68965C13.8723 6.42408 13.8203 6.16099 13.7186 5.91566C13.6169 5.67033 13.4675 5.44764 13.2791 5.26052C12.5162 4.49642 11.1824 4.49704 10.4202 5.2599L5.82761 9.85246C5.66987 10.0105 5.56517 10.2137 5.528 10.4338L5.25608 12.0395C5.23005 12.194 5.23802 12.3523 5.27942 12.5034C5.32083 12.6545 5.39467 12.7948 5.4958 12.9144C5.59694 13.034 5.72294 13.1302 5.86503 13.1962C6.00712 13.2622 6.16189 13.2964 6.31855 13.2964ZM11.8493 5.77422C11.9695 5.77394 12.0886 5.79756 12.1996 5.84371C12.3106 5.88987 12.4113 5.95763 12.4959 6.04307C12.6682 6.21533 12.7641 6.4448 12.7641 6.68965C12.7641 6.93328 12.6688 7.16337 12.4953 7.33563L11.8788 7.95269L10.5857 6.65951L11.2027 6.04245C11.375 5.86958 11.6045 5.77422 11.8493 5.77422ZM6.61077 10.6338L9.8025 7.44206L11.0963 8.73585L7.92056 11.9177L6.34808 12.2235L6.61077 10.6338ZM14.2056 14.2076H13.6285C13.4817 14.2076 13.3408 14.2659 13.237 14.3697C13.1331 14.4736 13.0748 14.6144 13.0748 14.7612C13.0748 14.9081 13.1331 15.0489 13.237 15.1528C13.3408 15.2566 13.4817 15.3149 13.6285 15.3149H14.2056C14.3524 15.3149 14.4933 15.2566 14.5971 15.1528C14.7009 15.0489 14.7593 14.9081 14.7593 14.7612C14.7593 14.6144 14.7009 14.4736 14.5971 14.3697C14.4933 14.2659 14.3524 14.2076 14.2056 14.2076ZM11.4107 14.2076H5.91866C5.77181 14.2076 5.63098 14.2659 5.52714 14.3697C5.4233 14.4736 5.36497 14.6144 5.36497 14.7612C5.36497 14.9081 5.4233 15.0489 5.52714 15.1528C5.63098 15.2566 5.77181 15.3149 5.91866 15.3149H11.4107C11.5575 15.3149 11.6983 15.2566 11.8022 15.1528C11.906 15.0489 11.9644 14.9081 11.9644 14.7612C11.9644 14.6144 11.906 14.4736 11.8022 14.3697C11.6983 14.2659 11.5575 14.2076 11.4107 14.2076Z" fill="#B5C9DE"/>
</g>
</g>
<defs>
<clipPath id="clip0_1518_31932">
<rect width="20" height="20" fill="white" transform="translate(0 -0.00878906)"/>
</clipPath>
</defs>
</svg>
