<svg width="24" height="24" viewBox="0 0 24 24" fill="none" xmlns="http://www.w3.org/2000/svg">
<g id="calendar-today">
<g id="Vector">
<path d="M19.5 3.66667H17V2H15.3333V3.66667H8.66667V2H7V3.66667H4.5C3.83696 3.66667 3.20107 3.93006 2.73223 4.3989C2.26339 4.86774 2 5.50363 2 6.16667V22H22V6.16667C22 5.50363 21.7366 4.86774 21.2678 4.3989C20.7989 3.93006 20.163 3.66667 19.5 3.66667ZM3.66667 6.16667C3.66667 5.94565 3.75446 5.73369 3.91074 5.57741C4.06702 5.42113 4.27899 5.33333 4.5 5.33333H19.5C19.721 5.33333 19.933 5.42113 20.0893 5.57741C20.2455 5.73369 20.3333 5.94565 20.3333 6.16667V8.66667H3.66667V6.16667ZM3.66667 20.3333V10.3333H20.3333V20.3333H3.66667Z" fill="#4E6072"/>
<path d="M9.5 12.8333H7.83333V14.5H9.5V12.8333Z" fill="#4E6072"/>
</g>
</g>
</svg>
