<svg width="20" height="20" viewBox="0 0 20 20" fill="none" xmlns="http://www.w3.org/2000/svg">
<g id="car">
<g id="Vector">
<path d="M4.1604 18.0122H1.86581C1.28685 18.0122 0.833313 17.5585 0.833313 16.9793V14.9368H1.75123V16.9793C1.75123 17.0466 1.79852 17.0937 1.86602 17.0937H4.1604C4.21581 17.0937 4.27519 17.0479 4.27519 16.9793V14.9368H5.1931V16.9793C5.19266 17.2531 5.08373 17.5155 4.89016 17.7091C4.69659 17.9027 4.43417 18.0117 4.1604 18.0122Z" fill="#B5C9DE"/>
<path d="M18.1341 18.0122H15.8396C15.5658 18.0118 15.3034 17.9028 15.1098 17.7092C14.9163 17.5156 14.8074 17.2531 14.8071 16.9793V14.9368H15.725V16.9793C15.725 17.0476 15.7841 17.0937 15.8398 17.0937H18.1344C18.1496 17.0944 18.1648 17.0919 18.179 17.0864C18.1932 17.0809 18.2061 17.0725 18.2169 17.0618C18.2277 17.051 18.2362 17.0381 18.2417 17.0239C18.2473 17.0097 18.2498 16.9945 18.2491 16.9793V14.9368H19.1666V16.9793C19.1666 17.5585 18.7131 18.0122 18.1341 18.0122Z" fill="#B5C9DE"/>
<path d="M17.2737 9.19827H2.72623C2.66216 9.19823 2.59882 9.18475 2.54029 9.1587C2.48176 9.13264 2.42934 9.0946 2.38644 9.04702C2.34342 8.9996 2.3108 8.9437 2.29067 8.88292C2.27054 8.82214 2.26335 8.75783 2.26956 8.6941L2.78581 3.25806C2.87144 2.51973 3.48665 1.96973 4.21769 1.96973H15.7821C16.5133 1.96973 17.1285 2.51973 17.2131 3.24806L17.7304 8.69535C17.7364 8.75909 17.729 8.82338 17.7088 8.88413C17.6886 8.94488 17.656 9.00078 17.6131 9.04827C17.5701 9.09547 17.5176 9.13318 17.4592 9.159C17.4008 9.18483 17.3376 9.1982 17.2737 9.19827ZM3.23206 8.27973H16.7689L16.3004 3.34452C16.2706 3.08785 16.0473 2.88848 15.7821 2.88848H4.21769C4.08914 2.88874 3.96517 2.93627 3.8694 3.02202C3.77363 3.10776 3.71273 3.22574 3.69831 3.35348L3.23206 8.27973Z" fill="#B5C9DE"/>
<path d="M18.7077 15.3962H1.29227C1.17053 15.396 1.05382 15.3476 0.967774 15.2614C0.881727 15.1753 0.833368 15.0586 0.833313 14.9368V9.83244C0.833313 8.97868 1.52831 8.28306 2.38227 8.28306H17.6179C18.4719 8.28306 19.1669 8.97889 19.1669 9.83244L19.1666 14.9368C19.1665 15.0586 19.1183 15.1753 19.0323 15.2614C18.9462 15.3476 18.8295 15.396 18.7077 15.3962ZM1.75123 14.4774H18.2489V9.83244C18.2488 9.66513 18.1823 9.5047 18.064 9.38642C17.9457 9.26813 17.7852 9.20166 17.6179 9.2016H2.38227C2.21496 9.20166 2.05452 9.26813 1.93619 9.38642C1.81787 9.5047 1.75134 9.66513 1.75123 9.83244V14.4774Z" fill="#B5C9DE"/>
<path d="M9.83665 8.74348H8.91873C8.91873 7.85285 8.19415 7.1291 7.30352 7.1291C6.4129 7.1291 5.68831 7.85285 5.68831 8.74348H4.7704C4.7704 7.34639 5.90665 6.21035 7.30331 6.21035C8.69998 6.21035 9.83665 7.34639 9.83665 8.74348Z" fill="#B5C9DE"/>
<path d="M2.77227 8.72785C2.67206 8.72785 2.5729 8.69431 2.49102 8.6316L1.01102 7.48431C0.955702 7.44131 0.910935 7.38625 0.880137 7.32332C0.849339 7.26038 0.833324 7.19125 0.833313 7.12118V5.97389C0.833313 5.72077 1.03873 5.51452 1.29227 5.51452H2.9904C3.11956 5.51452 3.2429 5.56952 3.32977 5.66473C3.41665 5.76098 3.45935 5.88889 3.44706 6.01764L3.22915 8.31202C3.22133 8.39375 3.19173 8.47189 3.14343 8.53828C3.09514 8.60468 3.02991 8.65691 2.95456 8.68952C2.89712 8.71482 2.83504 8.72788 2.77227 8.72785ZM1.75123 6.89598L2.39435 7.39452L2.48581 6.43327H1.75123V6.89598Z" fill="#B5C9DE"/>
<path d="M17.2277 8.72785C17.1135 8.72784 17.0034 8.68525 16.9189 8.60839C16.8344 8.53153 16.7816 8.42593 16.7708 8.31223L16.5527 6.01764C16.5467 5.9539 16.5541 5.88962 16.5743 5.82886C16.5945 5.76811 16.627 5.71222 16.67 5.66473C16.713 5.61751 16.7654 5.57977 16.8239 5.55391C16.8823 5.52805 16.9455 5.51464 17.0094 5.51452H18.7075C18.961 5.51452 19.1664 5.72077 19.1664 5.97389V7.12118C19.1664 7.26348 19.1008 7.39681 18.9887 7.4841L17.5087 8.63139C17.4282 8.69358 17.3294 8.72749 17.2277 8.72785ZM17.5144 6.43327L17.6058 7.39452L18.2489 6.89598V6.43327H17.5144Z" fill="#B5C9DE"/>
</g>
</g>
</svg>
