<svg width="16" height="16" viewBox="0 0 16 16" fill="none" xmlns="http://www.w3.org/2000/svg">
<g id="check-circle" clip-path="url(#clip0_3893_77650)">
<path id="Vector" d="M8.00002 0.666626C3.95202 0.666626 0.666687 3.95196 0.666687 7.99996C0.666687 12.048 3.95202 15.3333 8.00002 15.3333C12.048 15.3333 15.3334 12.048 15.3334 7.99996C15.3334 3.95196 12.048 0.666626 8.00002 0.666626ZM8.00002 13.8666C4.76602 13.8666 2.13335 11.234 2.13335 7.99996C2.13335 4.76596 4.76602 2.13329 8.00002 2.13329C11.234 2.13329 13.8667 4.76596 13.8667 7.99996C13.8667 11.234 11.234 13.8666 8.00002 13.8666ZM11.366 4.75863L6.53335 9.59129L4.63402 7.69929L3.60002 8.73329L6.53335 11.6666L12.4 5.79996L11.366 4.75863Z" fill="#18AD00"/>
</g>
<defs>
<clipPath id="clip0_3893_77650">
<rect width="16" height="16" fill="white"/>
</clipPath>
</defs>
</svg>
