<svg width="12" height="12" viewBox="0 0 12 12" fill="none" xmlns="http://www.w3.org/2000/svg">
<g id="check-circle" clip-path="url(#clip0_2071_68439)">
<path id="Vector" d="M6 0.5C2.964 0.5 0.5 2.964 0.5 6C0.5 9.036 2.964 11.5 6 11.5C9.036 11.5 11.5 9.036 11.5 6C11.5 2.964 9.036 0.5 6 0.5ZM6 10.4C3.5745 10.4 1.6 8.4255 1.6 6C1.6 3.5745 3.5745 1.6 6 1.6C8.4255 1.6 10.4 3.5745 10.4 6C10.4 8.4255 8.4255 10.4 6 10.4ZM8.5245 3.569L4.9 7.1935L3.4755 5.7745L2.7 6.55L4.9 8.75L9.3 4.35L8.5245 3.569Z" fill="#014D31"/>
</g>
<defs>
<clipPath id="clip0_2071_68439">
<rect width="12" height="12" fill="white"/>
</clipPath>
</defs>
</svg>
