<svg width="16" height="16" viewBox="0 0 16 16" fill="none" xmlns="http://www.w3.org/2000/svg">
<g id="check-circle-solid" clip-path="url(#clip0_3903_75574)">
<path id="Vector" d="M8.00002 0.666687C3.95658 0.666687 0.666687 3.95658 0.666687 8.00002C0.666687 12.0435 3.95658 15.3334 8.00002 15.3334C12.0435 15.3334 15.3334 12.0435 15.3334 8.00002C15.3334 3.95658 12.0435 0.666687 8.00002 0.666687ZM12.0986 6.0702L7.41188 10.7202C7.13619 10.9958 6.69509 11.0142 6.40102 10.7385L3.91982 8.47788C3.62575 8.20219 3.60737 7.74271 3.86468 7.44864C4.14037 7.15457 4.59985 7.13619 4.89392 7.41188L6.8605 9.21305L11.051 5.02258C11.345 4.72851 11.8045 4.72851 12.0986 5.02258C12.3927 5.31664 12.3927 5.77613 12.0986 6.0702Z" fill="#18AD00"/>
</g>
<defs>
<clipPath id="clip0_3903_75574">
<rect width="16" height="16" fill="white"/>
</clipPath>
</defs>
</svg>
