<svg width="20" height="20" viewBox="0 0 20 20" fill="none" xmlns="http://www.w3.org/2000/svg">
<g id="clipboard-quote" clip-path="url(#clip0_1518_31893)">
<g id="Vector">
<path d="M15.6239 2.4926H13.7491V1.8676C13.7491 1.52244 13.4694 1.2426 13.1242 1.2426H11.7674C11.4229 0.26619 10.3519 -0.246075 9.37547 0.0986511C9.11146 0.191831 8.87167 0.34294 8.67369 0.54089C8.4757 0.73884 8.32455 0.978607 8.23133 1.2426H6.87469C6.52953 1.2426 6.24969 1.52244 6.24969 1.8676V2.4926H4.37484C3.33937 2.4926 2.5 3.33197 2.5 4.36744V18.1164C2.5 19.1519 3.33937 19.9912 4.37484 19.9912H15.6241C16.6595 19.9912 17.4989 19.1519 17.4989 18.1164V4.3674C17.4988 3.33193 16.6594 2.4926 15.6239 2.4926ZM7.49953 2.4926H8.74953C9.09469 2.4926 9.37453 2.21275 9.37453 1.8676C9.37453 1.52244 9.65422 1.2426 9.99937 1.2426C10.3445 1.2426 10.6244 1.52244 10.6244 1.8676C10.6244 2.21275 10.9042 2.4926 11.2494 2.4926H12.4992V3.74244H7.49953V2.4926ZM16.2489 18.1164C16.2489 18.4615 15.9691 18.7414 15.6239 18.7414H4.37484C4.02969 18.7414 3.74984 18.4615 3.74984 18.1164V4.3674C3.74984 4.02224 4.02969 3.7424 4.37484 3.7424H6.24969V4.3674C6.24969 4.71256 6.52953 4.99225 6.87469 4.99225H13.1242C13.4694 4.99225 13.7491 4.71256 13.7491 4.3674V3.7424H15.6241C15.9692 3.7424 16.2489 4.02224 16.2489 4.3674V18.1164Z" fill="#B5C9DE"/>
<path d="M8.65541 15.7891H10.7278C12.1647 15.7891 13.3333 14.7202 13.3333 13.4055C13.3333 12.0909 12.1643 11.0223 10.7278 11.0223H10.1055C9.83541 11.0222 9.57637 10.9242 9.38518 10.7498C9.194 10.5754 9.08626 10.3387 9.0856 10.0918C9.08579 9.84452 9.1933 9.60744 9.38453 9.4326C9.57576 9.25775 9.83506 9.15945 10.1055 9.15928H12.1779C12.3883 9.15928 12.5901 9.08286 12.7389 8.94683C12.8877 8.8108 12.9713 8.6263 12.9713 8.43392C12.9713 8.24155 12.8877 8.05705 12.7389 7.92102C12.5901 7.78499 12.3883 7.70857 12.1779 7.70857H10.1055C8.66868 7.70857 7.5 8.7771 7.5 10.0918C7.5 11.4048 8.66903 12.4734 10.1055 12.4734H10.7278C11.2899 12.4734 11.7477 12.8909 11.7477 13.4059C11.7477 13.9208 11.2903 14.3384 10.7278 14.3384H8.65541C8.445 14.3384 8.24322 14.4148 8.09444 14.5508C7.94566 14.6869 7.86207 14.8714 7.86207 15.0637C7.86207 15.2561 7.94566 15.4406 8.09444 15.5766C8.24322 15.7127 8.445 15.7891 8.65541 15.7891Z" fill="#B5C9DE"/>
<path d="M10.417 17.4912C10.2068 17.491 10.0052 17.4145 9.85653 17.2785C9.7079 17.1425 9.62442 16.9581 9.62442 16.7659V15.1876C9.62442 14.7878 9.97932 14.4623 10.417 14.4623C10.8547 14.4623 11.2097 14.7878 11.2097 15.1876V16.7659C11.2097 17.1657 10.8547 17.4912 10.417 17.4912ZM10.417 9.04981C10.2068 9.04963 10.0052 8.97314 9.85653 8.83712C9.7079 8.70111 9.62442 8.51671 9.62442 8.32445V6.5499C9.62442 6.15002 9.97932 5.82454 10.417 5.82454C10.8547 5.82454 11.2097 6.15002 11.2097 6.5499V8.32445C11.2097 8.72433 10.8547 9.04981 10.417 9.04981Z" fill="#B5C9DE"/>
</g>
</g>
<defs>
<clipPath id="clip0_1518_31893">
<rect width="20" height="20" fill="white" transform="translate(0 -0.00878906)"/>
</clipPath>
</defs>
</svg>
