<svg width="20" height="20" viewBox="0 0 20 20" fill="none" xmlns="http://www.w3.org/2000/svg">
<g id="dashboard" clip-path="url(#clip0_1518_31682)">
<path id="Vector" fill-rule="evenodd" clip-rule="evenodd" d="M9.38887 2.65755C9.38887 1.64555 8.56753 0.824219 7.55553 0.824219H2.66665C1.65465 0.824219 0.833313 1.64555 0.833313 2.65755V7.54644C0.833313 8.55844 1.65465 9.37977 2.66665 9.37977H7.55553C8.56753 9.37977 9.38887 8.55844 9.38887 7.54644V2.65755ZM8.16665 2.65755V7.54644C8.16665 7.88377 7.89287 8.15755 7.55553 8.15755H2.66665C2.32931 8.15755 2.05554 7.88377 2.05554 7.54644V2.65755C2.05554 2.32022 2.32931 2.04644 2.66665 2.04644H7.55553C7.89287 2.04644 8.16665 2.32022 8.16665 2.65755ZM9.38887 12.4353C9.38887 11.4233 8.56753 10.602 7.55553 10.602H2.66665C1.65465 10.602 0.833313 11.4233 0.833313 12.4353V17.3242C0.833313 18.3362 1.65465 19.1576 2.66665 19.1576H7.55553C8.56753 19.1576 9.38887 18.3362 9.38887 17.3242V12.4353ZM8.16665 12.4353V17.3242C8.16665 17.6616 7.89287 17.9353 7.55553 17.9353H2.66665C2.32931 17.9353 2.05554 17.6616 2.05554 17.3242V12.4353C2.05554 12.098 2.32931 11.8242 2.66665 11.8242H7.55553C7.89287 11.8242 8.16665 12.098 8.16665 12.4353ZM19.1666 2.65755C19.1666 1.64555 18.3453 0.824219 17.3333 0.824219H12.4444C11.4324 0.824219 10.6111 1.64555 10.6111 2.65755V7.54644C10.6111 8.55844 11.4324 9.37977 12.4444 9.37977H17.3333C18.3453 9.37977 19.1666 8.55844 19.1666 7.54644V2.65755ZM17.9444 2.65755V7.54644C17.9444 7.88377 17.6706 8.15755 17.3333 8.15755H12.4444C12.1071 8.15755 11.8333 7.88377 11.8333 7.54644V2.65755C11.8333 2.32022 12.1071 2.04644 12.4444 2.04644H17.3333C17.6706 2.04644 17.9444 2.32022 17.9444 2.65755ZM19.1666 12.4353C19.1666 11.4233 18.3453 10.602 17.3333 10.602H12.4444C11.4324 10.602 10.6111 11.4233 10.6111 12.4353V17.3242C10.6111 18.3362 11.4324 19.1576 12.4444 19.1576H17.3333C18.3453 19.1576 19.1666 18.3362 19.1666 17.3242V12.4353ZM17.9444 12.4353V17.3242C17.9444 17.6616 17.6706 17.9353 17.3333 17.9353H12.4444C12.1071 17.9353 11.8333 17.6616 11.8333 17.3242V12.4353C11.8333 12.098 12.1071 11.8242 12.4444 11.8242H17.3333C17.6706 11.8242 17.9444 12.098 17.9444 12.4353Z" fill="#B5C9DE"/>
</g>
<defs>
<clipPath id="clip0_1518_31682">
<rect width="20" height="20" fill="white" transform="translate(0 -0.00878906)"/>
</clipPath>
</defs>
</svg>
