<svg width="12" height="16" viewBox="0 0 12 16" fill="none" xmlns="http://www.w3.org/2000/svg">
<g id="Group">
<path id="Vector" d="M10 6.66666H7.00002V5.135C7.97573 4.73828 8.66667 3.78306 8.66667 2.66666C8.66667 1.19628 7.47074 0 6.00002 0C4.5293 0 3.33337 1.19628 3.33337 2.66666C3.33337 3.78306 4.02434 4.73828 5.00002 5.135V6.66666H2.00003C1.265 6.66666 0.666687 7.26463 0.666687 8V14.6667C0.666687 15.402 1.265 16 2.00003 16H10C10.735 16 11.3334 15.402 11.3334 14.6667V8C11.3334 7.26466 10.735 6.66666 10 6.66666ZM4.00002 2.66666C4.00002 1.56378 4.89715 0.666656 6.00002 0.666656C7.10289 0.666656 8.00002 1.56378 8.00002 2.66666C8.00002 3.76953 7.10289 4.66666 6.00002 4.66666C4.89715 4.66666 4.00002 3.76953 4.00002 2.66666ZM6.33336 5.29966V10.3333C6.33336 10.5173 6.18361 10.6667 6.00002 10.6667C5.81643 10.6667 5.66668 10.5173 5.66668 10.3333V5.29966C5.77708 5.31366 5.88586 5.33334 6.00002 5.33334C6.11418 5.33334 6.22296 5.31363 6.33336 5.29966ZM5.06143 10.6667C5.19949 11.0538 5.56602 11.3333 6.00002 11.3333C6.43402 11.3333 6.80055 11.0538 6.93861 10.6667H8.33336C8.37714 10.6667 8.4205 10.6581 8.46096 10.6413C8.50141 10.6246 8.53817 10.6 8.56913 10.5691C8.60009 10.5381 8.62464 10.5014 8.64139 10.4609C8.65813 10.4205 8.66673 10.3771 8.6667 10.3333V9C8.6667 8.81609 8.81645 8.66666 9.00005 8.66666C9.18364 8.66666 9.33339 8.81606 9.33339 9V13.6667C9.33339 13.8506 9.18364 14 9.00005 14C8.81645 14 8.6667 13.8506 8.6667 13.6667V12C8.66673 11.9562 8.65813 11.9129 8.64139 11.8724C8.62464 11.8319 8.60009 11.7952 8.56913 11.7642C8.53817 11.7333 8.50141 11.7087 8.46096 11.692C8.4205 11.6752 8.37714 11.6666 8.33336 11.6667H6.66671C6.62292 11.6666 6.57956 11.6752 6.53911 11.692C6.49865 11.7087 6.46189 11.7333 6.43093 11.7642C6.39997 11.7952 6.37542 11.8319 6.35868 11.8724C6.34194 11.9129 6.33333 11.9562 6.33336 12V13.6667C6.33336 13.8506 6.18361 14 6.00002 14C5.81643 14 5.66668 13.8506 5.66668 13.6667V12C5.66671 11.9562 5.6581 11.9129 5.64136 11.8724C5.62462 11.8319 5.60007 11.7952 5.56911 11.7642C5.53815 11.7333 5.50139 11.7087 5.46093 11.692C5.42048 11.6752 5.37712 11.6666 5.33333 11.6667H3.66668C3.6229 11.6666 3.57954 11.6752 3.53908 11.692C3.49863 11.7087 3.46187 11.7333 3.43091 11.7642C3.39995 11.7952 3.3754 11.8319 3.35865 11.8724C3.34191 11.9129 3.33331 11.9562 3.33334 12V13.6667C3.33334 13.8506 3.18359 14 2.99999 14C2.8164 14 2.66665 13.8506 2.66665 13.6667V9C2.66665 8.81609 2.8164 8.66666 2.99999 8.66666C3.18359 8.66666 3.33334 8.81606 3.33334 9V10.3333C3.33331 10.3771 3.34191 10.4205 3.35865 10.4609C3.3754 10.5014 3.39995 10.5382 3.43091 10.5691C3.46187 10.6001 3.49863 10.6246 3.53908 10.6414C3.57954 10.6581 3.6229 10.6667 3.66668 10.6667H5.06143ZM10.6667 14.6667C10.6667 15.0342 10.3678 15.3333 10 15.3333H2.00003C1.63219 15.3333 1.33337 15.0342 1.33337 14.6667V8C1.33337 7.6325 1.63222 7.33334 2.00003 7.33334H5.00002V10H4.00002V9C4.00002 8.44856 3.55146 8 3.00003 8C2.44859 8 2.00003 8.44856 2.00003 9V13.6667C2.00003 14.2181 2.44859 14.6667 3.00003 14.6667C3.55146 14.6667 4.00002 14.2181 4.00002 13.6667V12.3333H5.00002V13.6667C5.00002 14.2181 5.44858 14.6667 6.00002 14.6667C6.55146 14.6667 7.00002 14.2181 7.00002 13.6667V12.3333H8.00002V13.6667C8.00002 14.2181 8.44858 14.6667 9.00001 14.6667C9.55145 14.6667 10 14.2181 10 13.6667V9C10 8.44856 9.55145 8 9.00001 8C8.44858 8 8.00002 8.44856 8.00002 9V10H7.00002V7.33334H10C10.3679 7.33334 10.6667 7.6325 10.6667 8V14.6667Z" fill="#444748"/>
<path id="Vector_2" d="M6.00003 1.33325C5.265 1.33325 4.66669 1.93122 4.66669 2.6666C4.66669 2.85085 4.81578 2.99994 5.00003 2.99994C5.18428 2.99994 5.33337 2.85085 5.33337 2.6666C5.33337 2.2991 5.63219 1.99994 6.00003 1.99994C6.18428 1.99994 6.33337 1.85085 6.33337 1.6666C6.33337 1.48235 6.18428 1.33325 6.00003 1.33325Z" fill="#444748"/>
</g>
</svg>
