<svg width="17" height="16" viewBox="0 0 17 16" fill="none" xmlns="http://www.w3.org/2000/svg">
<g id="supportIcon" clip-path="url(#clip0_3718_5225)">
<path id="vector" fill-rule="evenodd" clip-rule="evenodd" d="M13.0581 1.43306C12.814 1.18898 12.4182 1.18898 12.1742 1.43306L10.8484 2.75887L12.6161 4.52664L13.9419 3.20083C14.186 2.95675 14.186 2.56101 13.9419 2.31694L13.0581 1.43306ZM11.7322 5.41053L9.96447 3.64275L4.66117 8.94606L6.42894 10.7138L11.7322 5.41053ZM5.53685 11.5895L3.7855 9.83816C3.57746 10.0986 3.44178 10.4109 3.39428 10.7433L3.18804 12.187L4.63171 11.9807C4.96415 11.9332 5.27644 11.7975 5.53685 11.5895ZM11.2903 0.549176C12.0225 -0.183059 13.2097 -0.183059 13.9419 0.549176L14.8258 1.43305C15.5581 2.16529 15.5581 3.35248 14.8258 4.08472L6.57626 12.3343C6.09814 12.8124 5.47784 13.1225 4.80847 13.2182L1.7149 13.6601L2.15685 10.5665C2.25247 9.89717 2.56261 9.27688 3.0407 8.79875L11.2903 0.549176ZM0.5 14.75H16.5V16H0.5V14.75Z" fill="#E4BDC3"/>
</g>
<defs>
<clipPath id="clip0_3718_5225">
<rect width="16" height="16" fill="white" transform="translate(0.5)"/>
</clipPath>
</defs>
</svg>
