<svg width="20" height="20" viewBox="0 0 20 20" fill="none" xmlns="http://www.w3.org/2000/svg">
<g id="icon-left" clip-path="url(#clip0_2265_67804)">
<path id="vector" fill-rule="evenodd" clip-rule="evenodd" d="M15.6976 1.79132C15.3925 1.48623 14.8978 1.48623 14.5927 1.79132L12.9354 3.44859L15.1452 5.6583L16.8024 4.00104C17.1075 3.69594 17.1075 3.20127 16.8024 2.89617L15.6976 1.79132ZM14.0403 6.76316L11.8306 4.55344L5.20146 11.1826L7.41118 13.3923L14.0403 6.76316ZM6.29606 14.4869L4.10687 12.2977C3.84683 12.6232 3.67722 13.0136 3.61785 13.4291L3.36005 15.2337L5.16463 14.9759C5.58019 14.9165 5.97054 14.7469 6.29606 14.4869ZM13.4879 0.68647C14.4031 -0.228823 15.8871 -0.228823 16.8024 0.68647L17.9073 1.79131C18.8226 2.70661 18.8226 4.1906 17.9073 5.1059L7.59532 15.4179C6.99767 16.0155 6.2223 16.4032 5.38559 16.5227L1.51862 17.0751L2.07106 13.2081C2.19059 12.3715 2.57826 11.5961 3.17588 10.9984L13.4879 0.68647ZM0 18.4375H20V20H0V18.4375Z" fill="#0291DD"/>
</g>
<defs>
<clipPath id="clip0_2265_67804">
<rect width="20" height="20" fill="white"/>
</clipPath>
</defs>
</svg>
