<svg width="16" height="16" viewBox="0 0 16 16" fill="none" xmlns="http://www.w3.org/2000/svg">
<g id="error" clip-path="url(#clip0_3903_33820)">
<path id="Subtract" fill-rule="evenodd" clip-rule="evenodd" d="M13.1855 13.1855C16.0493 10.3216 16.0493 5.67842 13.1855 2.81457C10.3216 -0.0492739 5.67842 -0.0492747 2.81457 2.81457C-0.0492744 5.67841 -0.0492739 10.3216 2.81457 13.1855C5.67842 16.0493 10.3216 16.0493 13.1855 13.1855ZM8.66669 12C8.66669 12.3682 8.36821 12.6667 8.00002 12.6667C7.63183 12.6667 7.33335 12.3682 7.33335 12C7.33335 11.6318 7.63183 11.3334 8.00002 11.3334C8.36821 11.3334 8.66669 11.6318 8.66669 12ZM7.62627 9.97444C7.65826 10.1747 7.81596 10.3203 8.00025 10.3203C8.18453 10.3203 8.34223 10.1747 8.37378 9.97444L9.31639 4.08769C9.43489 3.34631 8.91762 2.66669 8.235 2.66669H7.76504C7.08242 2.66669 6.56515 3.34631 6.68365 4.08769L7.62627 9.97444Z" fill="#FE646F"/>
</g>
<defs>
<clipPath id="clip0_3903_33820">
<rect width="16" height="16" fill="white"/>
</clipPath>
</defs>
</svg>
