<svg width="20" height="20" viewBox="0 0 20 20" fill="none" xmlns="http://www.w3.org/2000/svg">
<g id="feedback">
<g id="Vector">
<path fill-rule="evenodd" clip-rule="evenodd" d="M12.4658 15.7625C13.9844 15.702 15.5 15.5865 17.0094 15.4177H17.0125C18.2439 15.2738 19.1666 14.2574 19.1666 13.054V6.09102C19.1666 4.88756 18.2439 3.87118 17.0125 3.72757L17.0094 3.72727C14.6824 3.46609 12.3422 3.33446 9.99998 3.33301C7.65773 3.33315 5.31741 3.46498 2.99054 3.72787H2.98748C1.75609 3.87208 0.836369 4.88756 0.836369 6.08982C0.833313 7.04624 0.833313 8.32286 0.833313 9.5728C0.833313 10.8224 0.833313 12.0991 0.836369 13.0561C0.836369 14.2577 1.75609 15.2732 2.98748 15.4171L2.99054 15.4174C4.50609 15.5883 6.02165 15.7035 7.53415 15.7634L8.99776 17.8202C9.11039 17.9785 9.26033 18.1078 9.43482 18.1971C9.60931 18.2864 9.80319 18.333 9.99998 18.333C10.1968 18.333 10.3907 18.2864 10.5651 18.1971C10.7396 18.1078 10.8896 17.9785 11.0022 17.8202L12.4658 15.7625ZM11.6378 14.8313L9.99998 17.1327L8.3622 14.8316C8.2522 14.6772 8.07498 14.5827 7.88248 14.5755C6.30276 14.521 4.71692 14.4046 3.13109 14.2257C2.51998 14.1537 2.05859 13.6527 2.05859 13.0552C2.05554 12.0985 2.05554 10.8218 2.05554 9.5725C2.05554 8.32316 2.05554 7.04714 2.05859 6.09042C2.05859 5.49289 2.51998 4.991 3.13109 4.91934C7.69527 4.40388 12.3046 4.40368 16.8689 4.91874C17.483 4.9907 17.9444 5.49229 17.9444 6.09102V13.054C17.9444 13.6527 17.483 14.1543 16.8689 14.2263C15.2891 14.4031 13.7064 14.5201 12.1175 14.5749C12.0227 14.5782 11.9301 14.6031 11.8468 14.6476C11.7635 14.6921 11.692 14.755 11.6378 14.8313Z" fill="#B5C9DE"/>
<path d="M8.16665 9.69872C8.16665 10.2783 7.68784 10.7481 7.0972 10.7481C6.50656 10.7481 6.02776 10.2783 6.02776 9.69872C6.02776 9.11917 6.50656 8.64936 7.0972 8.64936C7.68784 8.64936 8.16665 9.11917 8.16665 9.69872Z" fill="#B5C9DE"/>
<path d="M11.0694 9.69872C11.0694 10.2783 10.5906 10.7481 9.99998 10.7481C9.40934 10.7481 8.93053 10.2783 8.93053 9.69872C8.93053 9.11917 9.40934 8.64936 9.99998 8.64936C10.5906 8.64936 11.0694 9.11917 11.0694 9.69872Z" fill="#B5C9DE"/>
<path d="M13.9722 9.69872C13.9722 10.2783 13.4934 10.7481 12.9028 10.7481C12.3121 10.7481 11.8333 10.2783 11.8333 9.69872C11.8333 9.11917 12.3121 8.64936 12.9028 8.64936C13.4934 8.64936 13.9722 9.11917 13.9722 9.69872Z" fill="#B5C9DE"/>
</g>
</g>
</svg>
