<svg width="16" height="16" viewBox="0 0 16 16" fill="none" xmlns="http://www.w3.org/2000/svg">
<g id="fix" clip-path="url(#clip0_3903_33816)">
<g id="Vector">
<path d="M4.20635 8.75199C4.21563 8.74271 4.21626 8.74199 4.20635 8.75199V8.75199Z" fill="#18AD00"/>
<path d="M15.0091 6.72395L14.2797 6.54856C14.1211 5.8562 13.8479 5.19824 13.4661 4.58646L13.8357 3.96586C13.8846 3.88372 13.9047 3.78763 13.8929 3.69278C13.881 3.59793 13.8379 3.50975 13.7703 3.44218L12.5588 2.23074C12.4912 2.16322 12.403 2.12014 12.3082 2.10829C12.2134 2.09643 12.1173 2.11648 12.0351 2.16528L11.4145 2.53494C10.8028 2.1531 10.1448 1.87993 9.45244 1.72133L9.27704 0.991914C9.25377 0.899019 9.20013 0.816562 9.12464 0.757638C9.04915 0.698715 8.95613 0.666703 8.86037 0.666687H7.14164C7.04587 0.666698 6.95285 0.698708 6.87736 0.757632C6.80187 0.816557 6.74823 0.899017 6.72496 0.991914L6.54957 1.72133C5.8572 1.87993 5.19924 2.1531 4.58747 2.53494L3.96686 2.16528C3.88473 2.11639 3.78864 2.09628 3.69379 2.10813C3.59894 2.11999 3.51076 2.16313 3.44318 2.23074L2.23169 3.44215C2.16409 3.50973 2.12096 3.59791 2.1091 3.69275C2.09724 3.7876 2.11734 3.88369 2.16623 3.96583L2.53589 4.58643C2.15405 5.19821 1.88088 5.85617 1.72228 6.54854L0.992864 6.72393C0.899969 6.7472 0.817512 6.80084 0.758588 6.87633C0.699665 6.95182 0.667653 7.04484 0.667637 7.1406V8.85933C0.667637 9.05655 0.801916 9.22859 0.993265 9.27601L1.72268 9.4514C1.82842 9.91019 1.98757 10.351 2.19195 10.7737C2.50752 10.4568 4.09244 8.86576 4.20635 8.75199C4.20073 8.72306 4.13936 8.17203 4.13773 8.06483C4.10117 5.87525 5.8648 4.1332 8.00264 4.1332C10.1551 4.1332 11.8715 5.86883 11.8634 8.01338C11.8542 9.99668 10.3739 11.6851 8.30646 11.8395C8.21702 11.8464 7.81266 11.906 7.24904 11.7949L5.23239 13.8116C5.65354 14.0147 6.09264 14.1729 6.54954 14.2782L6.72493 15.008C6.7482 15.1009 6.80185 15.1834 6.87734 15.2423C6.95283 15.3012 7.04584 15.3333 7.14161 15.3333H8.86034C8.95611 15.3333 9.04912 15.3013 9.12462 15.2423C9.20011 15.1834 9.25375 15.1009 9.27702 15.008L9.45241 14.2786C10.1448 14.12 10.8027 13.8469 11.4145 13.465L12.0351 13.8347C12.2034 13.9354 12.4195 13.9077 12.5588 13.7692L13.7702 12.5578C13.8378 12.4902 13.881 12.402 13.8928 12.3072C13.9047 12.2123 13.8846 12.1162 13.8357 12.0341L13.466 11.4135C13.8483 10.8017 14.121 10.1438 14.2796 9.45097L15.0086 9.27601C15.2 9.22859 15.3343 9.05655 15.3343 8.85933V7.1406C15.3343 7.04485 15.3023 6.95184 15.2433 6.87635C15.1844 6.80086 15.102 6.74722 15.0091 6.72395Z" fill="#18AD00"/>
<path d="M10.9084 7.21444C10.8899 7.14176 10.8525 7.07528 10.7999 7.02176C10.7473 6.96825 10.6815 6.92961 10.6092 6.90979C10.5369 6.89001 10.4606 6.88974 10.3882 6.909C10.3157 6.92826 10.2496 6.96636 10.1967 7.01943L9.21615 8.00001C8.88098 8.33518 8.33613 8.33518 8.00093 8.00001C7.66608 7.66516 7.66608 7.11967 8.00093 6.78479L8.98189 5.80384C9.0349 5.75081 9.07293 5.6847 9.09211 5.61222C9.1113 5.53974 9.11096 5.46347 9.09112 5.39116C9.07129 5.31886 9.03267 5.25309 8.97918 5.20054C8.9257 5.148 8.85926 5.11054 8.78661 5.09199C6.97351 4.63122 5.34188 5.81223 5.04263 7.44315C4.94654 7.98027 4.98935 8.51527 5.16514 9.00789C4.92065 9.25241 1.14426 13.0287 1.04276 13.1303C0.538789 13.6343 0.538789 14.4542 1.05072 14.9661C1.55787 15.4469 2.33459 15.4671 2.87059 14.9582L6.99299 10.8357C7.65316 11.0714 8.38942 11.0666 9.10992 10.8123C10.4082 10.3542 11.3168 8.81683 10.9084 7.21444Z" fill="#18AD00"/>
</g>
</g>
<defs>
<clipPath id="clip0_3903_33816">
<rect width="16" height="16" fill="white"/>
</clipPath>
</defs>
</svg>
