<svg width="20" height="20" viewBox="0 0 20 20" fill="none" xmlns="http://www.w3.org/2000/svg">
<g id="graph-bar">
<g id="Vector">
<path fill-rule="evenodd" clip-rule="evenodd" d="M1.66669 2.21376V17.7693C1.66669 17.9167 1.72522 18.058 1.82941 18.1622C1.93359 18.2663 2.0749 18.3249 2.22224 18.3249H17.7778C17.9251 18.3249 18.0665 18.2663 18.1706 18.1622C18.2748 18.058 18.3334 17.9167 18.3334 17.7693C18.3334 17.622 18.2748 17.4807 18.1706 17.3765C18.0665 17.2723 17.9251 17.2138 17.7778 17.2138H2.7778V2.21376C2.7778 2.06642 2.71927 1.92511 2.61508 1.82092C2.51089 1.71673 2.36959 1.6582 2.22224 1.6582C2.0749 1.6582 1.93359 1.71673 1.82941 1.82092C1.72522 1.92511 1.66669 2.06642 1.66669 2.21376Z" fill="#B5C9DE"/>
<path d="M4.16669 6.4082C4.16669 6.08604 4.42785 5.82487 4.75002 5.82487H6.08335C6.40552 5.82487 6.66669 6.08604 6.66669 6.4082V15.2415C6.66669 15.5637 6.40552 15.8249 6.08335 15.8249H4.75002C4.42785 15.8249 4.16669 15.5637 4.16669 15.2415V6.4082Z" fill="#B5C9DE"/>
<path d="M9.16669 3.07487C9.16669 2.7527 9.42785 2.49154 9.75002 2.49154H11.0834C11.4055 2.49154 11.6667 2.7527 11.6667 3.07487V15.2415C11.6667 15.5637 11.4055 15.8249 11.0834 15.8249H9.75002C9.42785 15.8249 9.16669 15.5637 9.16669 15.2415V3.07487Z" fill="#B5C9DE"/>
<path d="M14.1667 4.74154C14.1667 4.41937 14.4279 4.1582 14.75 4.1582H16.0834C16.4055 4.1582 16.6667 4.41937 16.6667 4.74154V15.2415C16.6667 15.5637 16.4055 15.8249 16.0834 15.8249H14.75C14.4279 15.8249 14.1667 15.5637 14.1667 15.2415V4.74154Z" fill="#B5C9DE"/>
</g>
</g>
</svg>
