<svg width="98" height="24" viewBox="0 0 98 24" fill="none" xmlns="http://www.w3.org/2000/svg">
<g id="Group">
<g id="Group_2">
<path id="Vector" d="M8.54002 20.3086C10.4841 20.3086 11.4561 19.7531 11.4561 18.5728C11.4561 17.6355 9.85921 16.8717 6.7001 16.3163C2.63838 15.5873 0.555448 13.7821 0.520733 10.9007C0.520733 6.94309 3.64513 5.06845 7.84571 4.99902C10.2064 4.99902 12.081 5.51976 13.4696 6.56122C14.8235 7.6374 15.5526 9.13017 15.6567 11.0395H12.7406C11.6644 11.0048 10.9701 10.6229 10.6924 9.89391C10.3799 9.09546 9.44262 8.64415 7.91514 8.64415C6.10993 8.64415 5.20733 9.13017 5.20733 10.0675C5.20733 11.0048 6.38765 11.7338 8.78302 12.1851C11.9074 12.81 13.9556 13.6085 14.9624 14.5458C15.8303 15.4484 16.2469 16.5593 16.2469 17.8091C16.2469 22.3221 12.7059 23.9884 7.84571 23.9884C5.27676 23.9884 3.33269 23.433 2.08293 22.3568C0.694311 21.3153 0 19.7184 0 17.6008H4.72131C4.79074 19.6143 6.28351 20.3086 8.54002 20.3086Z" fill="white"/>
<path id="Vector_2" d="M23.676 10.0323H19.0588C19.6143 6.63021 22.0096 4.96387 26.2449 4.96387C31.3134 4.96387 33.8823 6.63021 33.9865 10.0323V16.2811C33.9865 21.3496 30.9315 23.6061 25.9672 23.9533C21.5583 24.3004 18.5034 22.2522 18.5034 18.1905C18.6075 13.7816 21.8013 12.6013 26.4532 12.15C28.432 11.907 29.4387 11.3168 29.4387 10.3101C29.3346 9.26859 28.3626 8.74786 26.4532 8.74786C24.8216 8.74786 23.919 9.16445 23.676 10.0323ZM29.5429 16.1076V14.4065C28.4667 14.8578 27.217 15.2397 25.8631 15.5174C24.0231 15.8645 23.0858 16.7324 23.0858 18.0863C23.19 19.5444 23.9537 20.2387 25.4118 20.2387C27.9807 20.2387 29.5429 18.7112 29.5429 16.1076Z" fill="white"/>
<path id="Vector_3" d="M60.891 5.24175L56.135 21.558C55.7879 22.7731 54.677 23.6063 53.4272 23.6063C52.108 23.6063 50.9624 22.6689 50.6847 21.3498L48.4282 10.4491L46.0328 21.3845C45.7551 22.7037 44.6095 23.641 43.2903 23.641H43.1861C41.9364 23.641 40.8255 22.8078 40.4783 21.558L35.8611 5.24175H38.3259C39.5757 5.24175 40.6866 6.10964 40.9643 7.35939L43.2556 17.531C43.2556 17.5658 43.2903 17.5658 43.2903 17.531L45.9286 5.20703H50.7541L53.2536 17.4616C53.2536 17.4963 53.2883 17.4963 53.2883 17.4616L55.649 6.90809C55.9961 5.76248 56.7252 5.20703 57.8708 5.20703H60.891V5.24175Z" fill="white"/>
<path id="Vector_4" d="M67.1745 10.0323H62.5574C63.1128 6.63021 65.5082 4.96387 69.7435 4.96387C74.8119 4.96387 77.3809 6.63021 77.4851 10.0323V16.2811C77.4851 21.3496 74.4301 23.6061 69.4658 23.9533C65.0569 24.3004 62.0019 22.2522 62.0019 18.1905C62.1061 13.7816 65.2999 12.6013 69.9518 12.15C71.9306 11.907 72.9373 11.3168 72.9373 10.3101C72.8332 9.26859 71.8611 8.74786 69.9518 8.74786C68.3201 8.74786 67.4175 9.16445 67.1745 10.0323ZM73.0067 16.1076V14.4065C71.9306 14.8578 70.6808 15.2397 69.3269 15.5174C67.487 15.8645 66.5497 16.7324 66.5497 18.0863C66.6538 19.5444 67.4175 20.2387 68.8756 20.2387C71.4445 20.2387 73.0067 18.7112 73.0067 16.1076Z" fill="white"/>
<path id="Vector_5" d="M80.054 14.1635C80.1929 8.22719 83.352 5.27637 89.4966 5.27637H90.1562V10.0671H88.594C86.0251 10.0671 84.7406 11.421 84.7406 14.0941V23.6409H80.054V14.1635Z" fill="white"/>
<path id="Vector_6" d="M95.4677 0C96.9952 0 97.7242 0.763742 97.6895 2.25651V3.61042H93.0723V0H95.4677ZM95.4677 5.24204C96.9605 5.24204 97.6895 5.97107 97.6895 7.46384V23.6066H93.0723V5.20733H95.4677V5.24204Z" fill="white"/>
</g>
</g>
</svg>
