<svg width="16" height="16" viewBox="0 0 16 16" fill="none" xmlns="http://www.w3.org/2000/svg">
<g id="meter">
<g id="Vector">
<path d="M9.50625 12.4322H6.49375C6.23488 12.4322 6.025 12.6339 6.025 12.8827C6.025 13.1315 6.23488 13.3333 6.49375 13.3333H9.50625C9.76513 13.3333 9.975 13.1315 9.975 12.8827C9.975 12.6339 9.76513 12.4322 9.50625 12.4322ZM9.31838 9.6521C9.41995 9.45637 9.4727 9.2406 9.47247 9.02188C9.47247 8.24028 8.81322 7.60666 8 7.60666C7.77238 7.60643 7.54784 7.65716 7.34416 7.75482L5.13622 5.63264C4.95319 5.4567 4.65638 5.4567 4.47331 5.63264C4.29025 5.80856 4.29025 6.0938 4.47331 6.26977L6.68141 8.3921C6.58 8.58772 6.52733 8.80333 6.52756 9.02188C6.52756 9.80348 7.18681 10.4371 8.00003 10.4371C8.22747 10.4373 8.45185 10.3867 8.65541 10.2892L9.17481 10.7884C9.35788 10.9644 9.65463 10.9645 9.83772 10.7885C10.0208 10.6126 10.0208 10.3273 9.83775 10.1514L9.31838 9.6521Z" fill="#747878"/>
<path d="M8 1.33325C3.58878 1.33325 0 4.7825 0 9.02221C0 10.3735 0.370687 11.703 1.07203 12.8672C1.20159 13.0822 1.48791 13.1558 1.71184 13.0317L3.01656 12.3078C3.24075 12.1834 3.31756 11.9079 3.18813 11.6923C3.05869 11.4769 2.77206 11.403 2.54781 11.5275L1.66244 12.0187C1.25575 11.2252 1.01497 10.3589 0.953688 9.47276H1.975C2.23388 9.47276 2.44375 9.27105 2.44375 9.02224C2.44375 8.77343 2.23388 8.57171 1.975 8.57171H0.953438C1.01569 7.66328 1.26459 6.80316 1.66378 6.02646L2.54784 6.51702C2.77209 6.64152 3.05878 6.5676 3.18816 6.35213C3.31759 6.13663 3.24078 5.86109 3.01659 5.73671L2.13363 5.24672C2.64808 4.511 3.30633 3.87834 4.07181 3.38389L4.58156 4.23244C4.711 4.44794 4.99769 4.52183 5.22188 4.39733C5.44606 4.2729 5.52288 3.99739 5.39344 3.78191L4.88306 2.93231C5.69119 2.54868 6.58613 2.3096 7.53125 2.24968V3.23149C7.53125 3.4803 7.74113 3.68202 8 3.68202C8.25887 3.68202 8.46875 3.4803 8.46875 3.23149V2.24968C9.41388 2.3096 10.3088 2.54871 11.1169 2.93231L10.6066 3.78191C10.4771 3.99739 10.5539 4.27293 10.7781 4.39733C11.0023 4.52183 11.289 4.44794 11.4184 4.23244L11.9282 3.38389C12.6937 3.87831 13.352 4.51098 13.8664 5.24672L12.9834 5.73665C12.7593 5.86106 12.6824 6.13657 12.8119 6.35207C12.9413 6.56754 13.2279 6.64146 13.4522 6.51696L14.3363 6.0264C14.7354 6.8031 14.9843 7.66322 15.0466 8.57165H14.025C13.7661 8.57165 13.5562 8.77337 13.5562 9.02218C13.5562 9.27099 13.7661 9.4727 14.025 9.4727H15.0463C14.985 10.3588 14.7443 11.2251 14.3376 12.0187L13.4522 11.5274C13.2279 11.4029 12.9413 11.4768 12.8119 11.6923C12.6824 11.9078 12.7593 12.1833 12.9834 12.3077L14.2882 13.0316C14.5121 13.1557 14.7984 13.0822 14.928 12.8671C15.6293 11.703 16 10.3735 16 9.02221C16 4.7825 12.4112 1.33325 8 1.33325Z" fill="#747878"/>
</g>
<path id="Vector_2" d="M9 9.03345C9 9.58573 8.55228 10.0334 8 10.0334C7.44772 10.0334 7 9.58573 7 9.03345C7 8.48116 7.44772 8.03345 8 8.03345C8.55228 8.03345 9 8.48116 9 9.03345Z" fill="#E1E3E3"/>
</g>
</svg>
