<svg width="24" height="24" viewBox="0 0 24 24" fill="none" xmlns="http://www.w3.org/2000/svg">
<g id="nav-icon">
<path id="Vector" d="M21.8318 13.52L20.0848 7.25438C19.5728 5.41881 18.4599 3.80653 16.9231 2.67383C15.3864 1.54113 13.5139 0.953002 11.6033 1.00294C9.69273 1.05287 7.85373 1.738 6.37861 2.94942C4.9035 4.16084 3.87692 5.82903 3.46206 7.68883L2.10955 13.7519C1.96015 14.4218 1.9636 15.1167 2.11965 15.7851C2.2757 16.4535 2.58036 17.0785 3.01114 17.6139C3.44192 18.1492 3.98782 18.5813 4.60853 18.8782C5.22924 19.1751 5.90892 19.3292 6.59738 19.3292H7.62165C7.83268 20.3651 8.3965 21.2965 9.21758 21.9655C10.0387 22.6345 11.0665 23 12.127 23C13.1874 23 14.2153 22.6345 15.0363 21.9655C15.8574 21.2965 16.4212 20.3651 16.6323 19.3292H17.4028C18.1115 19.3292 18.8106 19.1659 19.4456 18.852C20.0805 18.5381 20.634 18.0822 21.0629 17.5197C21.4918 16.9573 21.7845 16.3036 21.918 15.6098C22.0515 14.9159 22.0214 14.2007 21.8318 13.52ZM12.127 21.1623C11.5585 21.1599 11.0047 20.9826 10.5412 20.6544C10.0777 20.3263 9.72727 19.8634 9.53779 19.3292H14.7161C14.5266 19.8634 14.1762 20.3263 13.7127 20.6544C13.2493 20.9826 12.6954 21.1599 12.127 21.1623ZM19.5984 16.4099C19.3422 16.7487 19.0103 17.0233 18.629 17.2119C18.2476 17.4004 17.8275 17.4977 17.4018 17.496H6.59738C6.18435 17.496 5.77661 17.4034 5.40425 17.2253C5.03189 17.0471 4.70442 16.7878 4.44602 16.4666C4.18761 16.1454 4.00486 15.7705 3.91127 15.3695C3.81767 14.9684 3.8156 14.5516 3.90523 14.1497L5.25682 8.0857C5.58263 6.62489 6.38895 5.31457 7.54759 4.36304C8.70624 3.4115 10.1507 2.87337 11.6514 2.83418C13.1521 2.79499 14.6228 3.25699 15.8299 4.14674C17.0369 5.0365 17.9109 6.30294 18.313 7.74474L20.06 14.0104C20.1754 14.4186 20.1938 14.848 20.1137 15.2645C20.0336 15.681 19.8571 16.0732 19.5984 16.4099Z" fill="#201A1B"/>
</g>
</svg>
