<svg width="16" height="16" viewBox="0 0 16 16" fill="none" xmlns="http://www.w3.org/2000/svg">
<g id="pump">
<g id="Vector">
<path d="M14.5446 4.37173L12.6696 2.49673C12.5069 2.33402 12.2431 2.33402 12.0804 2.49673C11.9176 2.65944 11.9176 2.92327 12.0804 3.08598L12.6626 3.66824C11.9773 4.75376 12.5733 6.20697 13.8333 6.4941V13.1038C13.8333 13.5059 13.5062 13.833 13.1042 13.833C12.7021 13.833 12.375 13.5059 12.375 13.1038V9.24967C12.375 8.01311 11.4725 6.98355 10.2917 6.7846V2.99967C10.2917 2.08066 9.544 1.33301 8.62499 1.33301H3.62499C2.70598 1.33301 1.95832 2.08066 1.95832 2.99967V12.1663H1.74999C1.51988 12.1663 1.33332 12.3529 1.33332 12.583V14.2497C1.33332 14.4798 1.51988 14.6663 1.74999 14.6663H10.5C10.7301 14.6663 10.9167 14.4798 10.9167 14.2497V12.583C10.9167 12.3529 10.7301 12.1663 10.5 12.1663H10.2917V7.63574C11.0097 7.82124 11.5417 8.47449 11.5417 9.24967V13.1038C11.5417 13.9654 12.2426 14.6663 13.1042 14.6663C13.9657 14.6663 14.6667 13.9654 14.6667 13.1038V4.66634C14.6667 4.55585 14.6227 4.44986 14.5446 4.37173ZM10.0833 13.833H2.16665V12.9997H10.0833V13.833ZM2.79165 12.1663V2.99967C2.79165 2.54017 3.16548 2.16634 3.62499 2.16634H8.62499C9.08449 2.16634 9.45832 2.54017 9.45832 2.99967V12.1663H2.79165ZM13.2801 4.28572L13.8333 4.83892V5.62077C13.3166 5.39431 13.0774 4.80246 13.2801 4.28572Z" fill="#5C5F5F"/>
<path d="M8.20832 2.99967H4.04165C3.81155 2.99967 3.62499 3.18621 3.62499 3.41634V5.70801C3.62499 5.93814 3.81155 6.12467 4.04165 6.12467H8.20832C8.43843 6.12467 8.62499 5.93814 8.62499 5.70801V3.41634C8.62499 3.18621 8.43843 2.99967 8.20832 2.99967ZM7.79165 5.29134H4.45832V3.83301H7.79165V5.29134ZM5.83035 7.08007C5.5085 7.40191 4.45832 8.52462 4.45832 9.45801C4.45832 10.377 5.20598 11.1247 6.12499 11.1247C7.044 11.1247 7.79165 10.377 7.79165 9.45801C7.79165 8.52462 6.74147 7.40191 6.41962 7.08007C6.25689 6.91733 5.99309 6.91733 5.83035 7.08007ZM6.12499 10.2913C5.66548 10.2913 5.29165 9.91751 5.29165 9.45801C5.29165 9.10087 5.67626 8.49934 6.12499 7.98507C6.57371 8.49931 6.95832 9.10087 6.95832 9.45801C6.95832 9.91751 6.58449 10.2913 6.12499 10.2913Z" fill="#5C5F5F"/>
</g>
</g>
</svg>
