<svg width="16" height="16" viewBox="0 0 16 16" fill="none" xmlns="http://www.w3.org/2000/svg">
<g id="icon">
<path id="Vector" d="M14 13.2939L10.8732 10.1671C11.6854 9.17373 12.0847 7.90617 11.9886 6.62661C11.8925 5.34706 11.3082 4.1534 10.3567 3.29254C9.40511 2.43168 8.15909 1.96949 6.87632 2.00156C5.59356 2.03364 4.37219 2.55752 3.46486 3.46486C2.55752 4.37219 2.03364 5.59356 2.00156 6.87632C1.96949 8.15909 2.43168 9.40511 3.29254 10.3567C4.1534 11.3082 5.34706 11.8925 6.62661 11.9886C7.90617 12.0847 9.17373 11.6854 10.1671 10.8732L13.2939 14L14 13.2939ZM7.00932 11.004C6.21925 11.004 5.44692 10.7697 4.79 10.3308C4.13308 9.89183 3.62107 9.26795 3.31873 8.53802C3.01638 7.80809 2.93727 7.00489 3.09141 6.23C3.24554 5.45511 3.626 4.74333 4.18466 4.18466C4.74333 3.626 5.45511 3.24554 6.23 3.09141C7.00489 2.93727 7.80809 3.01638 8.53802 3.31873C9.26795 3.62107 9.89183 4.13308 10.3308 4.79C10.7697 5.44692 11.004 6.21925 11.004 7.00932C11.0028 8.06841 10.5816 9.08378 9.83267 9.83267C9.08378 10.5816 8.06841 11.0028 7.00932 11.004Z" fill="#4E6072"/>
</g>
</svg>
