<svg width="20" height="20" viewBox="0 0 20 20" fill="none" xmlns="http://www.w3.org/2000/svg">
<g id="setting">
<path id="icon" fill-rule="evenodd" clip-rule="evenodd" d="M13.0316 18.066C12.9399 18.6744 12.3718 19.1576 11.6936 19.1576H8.30299C7.62486 19.1576 7.0567 18.6744 6.97423 18.0212L6.7268 16.3302C6.47938 16.2049 6.24111 16.0707 6.00285 15.9186L4.35335 16.5628C3.71188 16.7954 3.00626 16.5359 2.69469 15.9812L1.0177 13.1449C0.696964 12.5543 0.834423 11.8564 1.3476 11.4627L2.74967 10.398C2.74051 10.2638 2.73135 10.1296 2.73135 9.98641C2.73135 9.8522 2.74051 9.70904 2.74967 9.57483L1.35676 8.51008C0.816095 8.10745 0.678637 7.3827 1.0177 6.82796L2.71302 3.97372C3.02459 3.41898 3.73021 3.16845 4.35335 3.41003L6.01202 4.0632C6.25028 3.91109 6.48854 3.77688 6.7268 3.65161L6.97423 1.94265C7.0567 1.31633 7.62486 0.824219 8.29382 0.824219H11.6845C12.3626 0.824219 12.9308 1.30738 13.0132 1.96055L13.2607 3.65161C13.5081 3.77688 13.7463 3.91109 13.9846 4.0632L15.6341 3.41898C16.2847 3.18635 16.9904 3.44582 17.3019 4.00056L18.9881 6.84585C19.318 7.43639 19.1714 8.13429 18.6582 8.52798L17.2653 9.59272C17.2744 9.72693 17.2836 9.86115 17.2836 10.0043C17.2836 10.1475 17.2744 10.2817 17.2653 10.4159L18.6582 11.4806C19.1714 11.8833 19.318 12.5812 18.9972 13.1449L17.2928 16.0259C16.9812 16.5807 16.2756 16.8312 15.6433 16.5896L13.9938 15.9454C13.7555 16.0975 13.5172 16.2317 13.279 16.357L13.0316 18.066ZM8.73369 17.3681H11.2629L11.602 15.0865L12.0877 14.8896C12.4909 14.7286 12.8941 14.4959 13.3156 14.1917L13.728 13.8875L15.909 14.7465L17.1736 12.5991L15.3134 11.1854L15.3775 10.6843L15.3804 10.6602C15.4069 10.4362 15.4325 10.2196 15.4325 9.98641C15.4325 9.74483 15.405 9.5122 15.3775 9.28851L15.3134 8.78745L17.1736 7.37375L15.8998 5.22637L13.7097 6.08532L13.2973 5.77216C12.9124 5.48584 12.5 5.25321 12.0785 5.08321L11.602 4.88636L11.2629 2.60476H8.73369L8.39463 4.88636L7.90894 5.07426C7.50573 5.24426 7.10252 5.46795 6.68098 5.78111L6.26861 6.07637L4.0876 5.22637L2.81382 7.36481L4.67409 8.77851L4.60994 9.27956C4.58245 9.5122 4.55496 9.75378 4.55496 9.98641C4.55496 10.219 4.57329 10.4606 4.60994 10.6843L4.67409 11.1854L2.81382 12.5991L4.07844 14.7465L6.26861 13.8875L6.68098 14.2007C7.07503 14.4959 7.46908 14.7196 7.89978 14.8896L8.38546 15.0865L8.73369 17.3681ZM13.2057 9.98641C13.2057 11.716 11.7697 13.118 9.99831 13.118C8.22693 13.118 6.79095 11.716 6.79095 9.98641C6.79095 8.25687 8.22693 6.8548 9.99831 6.8548C11.7697 6.8548 13.2057 8.25687 13.2057 9.98641Z" fill="#B5C9DE"/>
</g>
</svg>
