<svg width="20" height="20" viewBox="0 0 20 20" fill="none" xmlns="http://www.w3.org/2000/svg">
<g id="target" clip-path="url(#clip0_1518_31807)">
<g id="Vector">
<path d="M12.0128 11.1248L11.1367 12.0008L7.04555 7.90985L4.3104 8.41123L0.00177002 4.10327L3.47729 3.46618L4.11444 -0.00878906L8.42299 4.29917L7.92158 7.03402L12.0128 11.1248ZM7.08723 4.71532L4.90737 2.5358L4.54164 4.53042L2.54672 4.8961L4.72657 7.07561L5.98116 6.84583L5.11596 5.98071L5.9921 5.10469L6.85719 5.96981L7.08723 4.71532Z" fill="#B5C9DE"/>
<path d="M11.1619 8.6877L10.9234 7.47221C11.8416 7.29138 12.7935 7.41036 13.639 7.81159C14.4844 8.21282 15.1784 8.87507 15.6188 9.70068C16.0592 10.5263 16.2226 11.4715 16.0849 12.397C15.9471 13.3225 15.5156 14.1793 14.8539 14.8409C14.1922 15.5026 13.3354 15.9341 12.4098 16.0719C11.4841 16.2096 10.5387 16.0463 9.713 15.6061C8.88725 15.1658 8.22486 14.4719 7.82352 13.6266C7.42218 12.7813 7.30313 11.8295 7.48392 10.9114L8.69961 11.1499C8.56996 11.8074 8.65509 12.4892 8.94245 13.0947C9.22981 13.7002 9.70418 14.1973 10.2956 14.5127C10.887 14.8281 11.5641 14.9451 12.2271 14.8464C12.8901 14.7478 13.5038 14.4387 13.9777 13.9648C14.4517 13.4909 14.7607 12.8772 14.8593 12.2143C14.9579 11.5514 14.8408 10.8744 14.5253 10.2831C14.2098 9.69181 13.7126 9.21755 13.107 8.9303C12.5014 8.64305 11.8195 8.558 11.1619 8.6877Z" fill="#B5C9DE"/>
<path d="M5.62161 10.286C5.31775 11.605 5.45146 12.987 6.00252 14.2233C6.55358 15.4596 7.49207 16.4831 8.67621 17.139C9.86036 17.7949 11.2258 18.0477 12.5664 17.8592C13.9069 17.6707 15.1497 17.0511 16.1069 16.0941C18.5379 13.6634 18.5379 9.70844 16.1069 7.27781C15.3602 6.52697 14.4337 5.9797 13.4156 5.6881C12.3975 5.39649 11.3218 5.37026 10.2907 5.61188L10.0124 4.40486C11.2482 4.11844 12.5367 4.15149 13.7563 4.50089C14.9758 4.85029 16.0863 5.50453 16.9829 6.40191C19.8969 9.31555 19.8969 14.0564 16.9829 16.97C16.0593 17.8929 14.9101 18.5579 13.6496 18.8987C12.3891 19.2395 11.0613 19.2443 9.79834 18.9125C8.53543 18.5807 7.38146 17.9239 6.45131 17.0076C5.52117 16.0913 4.8473 14.9473 4.49679 13.6896C4.16479 12.4886 4.13636 11.2239 4.41404 10.0091L5.62161 10.286Z" fill="#B5C9DE"/>
</g>
</g>
<defs>
<clipPath id="clip0_1518_31807">
<rect width="20" height="20" fill="white" transform="translate(0 -0.00878906)"/>
</clipPath>
</defs>
</svg>
