<svg width="20" height="20" viewBox="0 0 20 20" fill="none" xmlns="http://www.w3.org/2000/svg">
<g id="icon-left">
<g id="vectir">
<path d="M12.5 4.58333C12.5 5.73393 11.5672 6.66667 10.4166 6.66667C9.26605 6.66667 8.33331 5.73393 8.33331 4.58333C8.33331 3.43274 9.26605 2.5 10.4166 2.5C11.5672 2.5 12.5 3.43274 12.5 4.58333Z" fill="#E60012"/>
<path d="M12.5 9.58333C12.5 10.7339 11.5672 11.6667 10.4166 11.6667C9.26605 11.6667 8.33331 10.7339 8.33331 9.58333C8.33331 8.43274 9.26605 7.5 10.4166 7.5C11.5672 7.5 12.5 8.43274 12.5 9.58333Z" fill="#E60012"/>
<path d="M10.4166 16.6667C11.5672 16.6667 12.5 15.7339 12.5 14.5833C12.5 13.4327 11.5672 12.5 10.4166 12.5C9.26605 12.5 8.33331 13.4327 8.33331 14.5833C8.33331 15.7339 9.26605 16.6667 10.4166 16.6667Z" fill="#E60012"/>
</g>
</g>
</svg>
