<svg width="20" height="20" viewBox="0 0 20 20" fill="none" xmlns="http://www.w3.org/2000/svg">
<g id="user-group" clip-path="url(#clip0_1518_31906)">
<path id="Vector" d="M10 8.16045C11.8739 8.16045 13.3984 6.702 13.3984 4.90932C13.3984 3.11665 11.8739 1.6582 10 1.6582C8.12609 1.6582 6.60156 3.11665 6.60156 4.90932C6.60156 6.702 8.12609 8.16045 10 8.16045ZM10 2.77928C11.2277 2.77928 12.2266 3.73481 12.2266 4.90932C12.2266 6.08384 11.2277 7.03937 10 7.03937C8.77227 7.03937 7.77344 6.08384 7.77344 4.90932C7.77344 3.73481 8.77227 2.77928 10 2.77928ZM16.875 8.16045C18.0596 8.16045 19.0234 7.23844 19.0234 6.10514C19.0234 4.97184 18.0596 4.04983 16.875 4.04983C15.6904 4.04983 14.7266 4.97184 14.7266 6.10514C14.7266 7.23844 15.6904 8.16045 16.875 8.16045ZM16.875 5.17091C17.4135 5.17091 17.8516 5.59 17.8516 6.10514C17.8516 6.62027 17.4135 7.03937 16.875 7.03937C16.3365 7.03937 15.8984 6.62027 15.8984 6.10514C15.8984 5.59 16.3365 5.17091 16.875 5.17091ZM17.3477 9.431H16.4414C15.3735 9.431 14.4516 10.0346 14.0315 10.9016C13.1666 9.99834 11.9243 9.431 10.5461 9.431H9.45398C8.0757 9.431 6.8334 9.99834 5.96852 10.9016C5.5484 10.0346 4.62652 9.431 3.55859 9.431H2.65234C1.18984 9.431 0 10.5624 0 11.953V16.0341C0 16.6379 0.515391 17.1291 1.14891 17.1291H4.73199C4.79207 17.798 5.38004 18.3249 6.09461 18.3249H13.9054C14.62 18.3249 15.2079 17.798 15.268 17.1291H18.8102C19.4663 17.1291 20 16.6205 20 15.9953V11.953C20 10.5624 18.8102 9.431 17.3477 9.431ZM1.17188 11.953C1.17188 11.1806 1.83602 10.5521 2.65234 10.5521H3.55859C4.37492 10.5521 5.03906 11.1806 5.03906 11.953V12.3369C4.64504 13.3183 4.72656 13.9065 4.72656 16.008H1.17188V11.953ZM14.1016 17.0162C14.1015 17.0659 14.0808 17.1136 14.0441 17.1488C14.0073 17.184 13.9574 17.2037 13.9054 17.2038H6.09457C6.04257 17.2037 5.99272 17.1839 5.95595 17.1488C5.91918 17.1136 5.8985 17.0659 5.89844 17.0162V13.9535C5.89844 12.0779 7.49344 10.5521 9.45395 10.5521H10.546C12.5066 10.5521 14.1016 12.0779 14.1016 13.9535V17.0162ZM18.8281 15.9953C18.8281 16.0146 19.0466 16.008 15.2734 16.008C15.2734 13.891 15.3543 13.3167 14.9609 12.3369V11.953C14.9609 11.1806 15.6251 10.5521 16.4414 10.5521H17.3477C18.164 10.5521 18.8281 11.1806 18.8281 11.953V15.9953ZM3.125 8.16045C4.30965 8.16045 5.27344 7.23844 5.27344 6.10514C5.27344 4.97184 4.30965 4.04983 3.125 4.04983C1.94035 4.04983 0.976562 4.97184 0.976562 6.10514C0.976562 7.23844 1.94035 8.16045 3.125 8.16045ZM3.125 5.17091C3.66348 5.17091 4.10156 5.59 4.10156 6.10514C4.10156 6.62027 3.66348 7.03937 3.125 7.03937C2.58652 7.03937 2.14844 6.62027 2.14844 6.10514C2.14844 5.59 2.58652 5.17091 3.125 5.17091Z" fill="#B5C9DE"/>
</g>
<defs>
<clipPath id="clip0_1518_31906">
<rect width="20" height="20" fill="white" transform="translate(0 -0.00878906)"/>
</clipPath>
</defs>
</svg>
