<svg width="21" height="20" viewBox="0 0 21 20" fill="none" xmlns="http://www.w3.org/2000/svg">
<g id="user-circle">
<path id="Vector" d="M10.6001 0.833008C5.54008 0.833008 1.43341 4.93967 1.43341 9.99967C1.43341 15.0597 5.54008 19.1663 10.6001 19.1663C15.6601 19.1663 19.7667 15.0597 19.7667 9.99967C19.7667 4.93967 15.6601 0.833008 10.6001 0.833008ZM6.08091 15.7563C6.47508 14.9313 8.87674 14.1247 10.6001 14.1247C12.3234 14.1247 14.7342 14.9313 15.1192 15.7563C13.8726 16.7463 12.3051 17.333 10.6001 17.333C8.89508 17.333 7.32758 16.7463 6.08091 15.7563ZM16.4301 14.4272C15.1192 12.8322 11.9384 12.2913 10.6001 12.2913C9.26174 12.2913 6.08091 12.8322 4.77008 14.4272C3.83508 13.1988 3.26674 11.668 3.26674 9.99967C3.26674 5.95717 6.55758 2.66634 10.6001 2.66634C14.6426 2.66634 17.9334 5.95717 17.9334 9.99967C17.9334 11.668 17.3651 13.1988 16.4301 14.4272ZM10.6001 4.49967C8.82174 4.49967 7.39174 5.92967 7.39174 7.70801C7.39174 9.48634 8.82174 10.9163 10.6001 10.9163C12.3784 10.9163 13.8084 9.48634 13.8084 7.70801C13.8084 5.92967 12.3784 4.49967 10.6001 4.49967ZM10.6001 9.08301C9.83924 9.08301 9.22508 8.46884 9.22508 7.70801C9.22508 6.94717 9.83924 6.33301 10.6001 6.33301C11.3609 6.33301 11.9751 6.94717 11.9751 7.70801C11.9751 8.46884 11.3609 9.08301 10.6001 9.08301Z" fill="#B5C9DE"/>
</g>
</svg>
