<svg width="47" height="24" viewBox="0 0 47 24" fill="none" xmlns="http://www.w3.org/2000/svg">
<path d="M2.86041 9.79795C3.26429 9.79795 3.48336 9.44207 3.33655 9.02432C3.28692 8.88259 3.07699 8.76645 2.87038 8.76645C2.46651 8.76645 2.24744 9.12231 2.39425 9.54007C2.44387 9.682 2.6538 9.79795 2.86041 9.79795Z" fill="
#F3342F
"/>
<path d="M6.72412 9.75318C9.04064 9.69851 9.19866 9.66839 9.19866 9.2822C9.19866 8.89518 9.04085 8.86609 6.65082 8.81162C4.47322 8.76211 4.08471 8.80153 3.9759 9.08333C3.73981 9.69459 4.22238 9.81218 6.72412 9.75318Z" fill="
#F3342F
"/>
<path d="M4.22321 12.8924C8.07736 12.8924 8.37222 12.8336 8.10768 12.1188C8.03584 11.9251 7.04058 11.8609 4.10132 11.8609C0.161197 11.8609 -0.356679 11.9573 0.173446 12.5921C0.376526 12.8351 1.15064 12.8924 4.22321 12.8924Z" fill="
#F3342F
"/>
<path d="M8.78337 15.8838V15.368V14.8523L6.18777 14.8005C3.46945 14.7462 2.98334 14.856 3.10731 15.4959C3.17645 15.8526 3.40715 15.8838 5.98303 15.8838H8.78337Z" fill="
#F3342F
"/>
<path fill-rule="evenodd" clip-rule="evenodd" d="M32.2092 3.80578C29.885 2.2736 27.5251 1.2681 25.4789 0.938231C19.605 -0.00868154 14.0801 2.41986 11.4211 7.11729C9.92273 9.76431 9.33613 14.5969 10.2695 16.6058C10.989 18.1547 12.1028 19.0954 13.7293 19.5276C14.5059 19.7339 14.7094 19.8864 14.8089 20.3359C14.9815 21.1169 16.2504 22.5204 17.2672 23.0547C17.9201 23.3978 18.4807 23.5061 19.5919 23.5038C21.3639 23.5001 22.5419 22.913 23.7731 21.4196C25.0021 19.9289 25.6934 19.7102 29.1914 19.7048C32.7219 19.6995 33.0794 19.8136 34.643 21.4452C36.1746 23.0436 37.0906 23.4995 38.7885 23.5092C39.85 23.5152 40.36 23.4017 41.1765 22.9782C44.5777 21.2137 44.8973 16.4181 41.7517 14.3479C39.2472 12.6997 36.77 13.0996 34.7024 15.485C33.3064 17.0956 32.8986 17.2247 29.2047 17.2247C25.5389 17.2247 25.1062 17.0923 23.821 15.5782C22.6694 14.2214 21.5423 13.5612 20.0942 13.3958C17.917 13.147 15.6792 14.482 14.7996 16.5542C14.643 16.9231 14.42 17.2247 14.3039 17.2247C14.1878 17.2247 13.7638 16.9377 13.3618 16.587C12.4054 15.7528 12.1294 14.7128 12.2719 12.4798C12.4482 9.7181 13.3533 7.66274 15.2022 5.82586C17.2185 3.82269 19.6299 2.91373 22.9034 2.9226C25.9125 2.93086 27.7184 3.45631 31.8878 5.53642C35.6921 7.43458 37.4778 8.13477 40.4082 8.87744C43.2976 9.6096 45.7672 11.2253 46.3089 12.7377C46.5282 13.3498 46.8868 13.5047 46.8868 12.9873C46.8868 12.4419 46.1297 11.1713 45.3377 10.3878C44.4287 9.48829 42.707 8.62946 40.0344 7.74238C37.5549 6.91945 34.9269 5.59728 32.2092 3.80578ZM18.6539 16.0478C16.4205 16.8191 16.5 20.1323 18.7706 20.9185C19.7939 21.2729 20.5157 21.1165 21.3743 20.3543C21.8972 19.8901 22.039 19.5821 22.1084 18.7598C22.2047 17.6173 21.9277 16.9386 21.1384 16.3836C20.4189 15.8778 19.5042 15.754 18.6539 16.0478ZM36.2967 18.5543C36.2967 17.327 36.7953 16.5241 37.8365 16.0742C39.0853 15.5347 40.5826 16.1136 41.1813 17.3671C42.4523 20.0281 39.0144 22.3836 36.9386 20.2742C36.3885 19.7152 36.2967 19.4694 36.2967 18.5543Z" fill="
#202529
"/>
</svg>
